Patient5_TMGait_0pt45_1_right_08_EMG.mot
version=1
nRows=39
nColumns=33
inDegrees=no
endheader
time	1LAddLong	2LGlutMax	3LGlutMed	4LIliopsoas	5LSemiMemb	6LBicFemLong	7LRecFem	8LTensFascLat	9LVastMed	10LVasLat	11LGasMed	12lGasLat	13LTibAnt	14LPeroneusLong	15LSol	16LTibPost	17RAddLong	18RGlutMax	19RGlutMed	20RIliopsoas	21RSemiMemb	22RBicFemLong	23RRecFem	24RTensFascLat	25RVastMed	26RVasLat	27RGasMed	28RGasLat	29RTibAnt	30RPeroneusLong	31RSol	32RTibPost
14.68	0.062866	-0.005646	-0.003357	0.027466	0.001678	0.14984	0.035095	-0.054779	-0.011292	0.04715	0.052948	0.004883	0.000305	-0.053101	-0.034637	0.01236	0.001526	0.004272	-0.081329	-0.059509	-0.054932	-0.007935	-0.000458	-0.031586	-0.010681	0.006409	0	-0.024109	0.006104	-0.019989	-0.02533	-0.018463
14.681	0.055542	-0.010681	-0.023651	0.019684	-0.015564	0.10788	0.021362	-0.056152	-0.018768	0.037231	0.023499	-0.014191	0.009918	-0.040588	-0.000153	0.051422	0.002747	-0.00351	0.007172	0.033417	-0.04364	0.001678	-0.000458	-0.048981	-0.006104	-0.001373	0.001678	-0.00061	0.033722	0.007629	-0.011444	-0.01297
14.682	0.057831	-0.008087	0.007629	0.018463	-0.018463	0.040741	0.009155	-0.057068	-0.03479	0.006104	-0.018311	-0.009918	0.00946	-0.028076	0.031738	0.15305	-0.006561	-0.003052	0.1178	0.00061	-0.01297	-0.000305	-0.000305	-0.047913	0.006104	-0.007019	-0.004425	0.024414	0.026398	0.031433	0.000763	-0.015259
14.683	0.014496	-0.004272	0.087433	0.033722	-0.000305	-0.018616	0.001068	0.057983	-0.042419	0.015106	0.012512	0.005035	0.022583	-0.005341	0.02182	0.017395	-0.003662	-0.005188	0.15472	0.047302	0.011902	-0.006714	-0.001221	-0.031891	0.00351	0.000763	-0.007935	0.026245	-0.003052	0.059967	-0.000153	-0.005493
14.684	-0.13687	-0.002899	0.11856	0.021973	0.005798	-0.019684	-0.007782	0.19073	-0.03418	0.00824	0.041962	-0.015259	0.039063	-0.011139	0.010376	-0.005646	-0.003204	-0.003815	0.1355	0.072174	0.008698	-0.009155	-0.009003	-0.011444	0.005798	0.000153	-0.008392	0.034485	0.005341	0.061493	-0.005493	0.002441
14.685	-0.028992	-0.010529	0.10696	0.006104	-0.000153	-0.039063	-0.020599	0.12817	-0.03418	-0.036011	0.011597	-0.006256	0.048676	-0.013733	-0.00351	0.072174	0.001373	-0.003357	0.072021	0.087433	0.028839	-0.009155	-0.00412	0.012512	-0.001678	-0.003967	-0.004578	0.033417	0.011597	0.057068	-0.005493	0.007324
14.686	0.026093	-0.001221	0.10117	-0.016479	0.01297	-0.054932	-0.040588	0.041809	-0.033569	-0.054169	-0.029449	0.001678	0.053253	-0.007019	-0.012512	-0.080872	-0.00412	-0.001526	0.12039	0.054016	0.008698	-0.006714	-0.004425	-0.004272	-0.009918	-0.007477	0.001373	0.010529	-0.007019	0.013885	-0.019226	0.00412
14.687	0.056763	-0.00061	0.049591	-0.031281	0.000153	0.040283	-0.03006	0.032043	-0.016632	-0.061798	-0.074005	0.012512	0.013123	-0.003204	-0.019684	0.006561	0.003204	-0.003357	0.12497	-0.015564	0.010986	0.000916	0.000305	-0.053253	-0.000458	-0.005341	-0.008087	-0.009155	-0.011597	-0.054169	-0.021667	0.001068
14.688	0.076599	0.003204	0.092773	-0.041504	0.007629	0.10986	-0.020447	0.002289	0.000305	-0.064392	-0.081024	0.010071	-0.014648	-0.012207	-0.02655	-0.098877	0.002289	-0.006256	0.12299	-0.048676	0.012665	-0.006409	-0.000305	-0.10666	0	0.000763	0.002441	-0.021667	0.007935	-0.052032	-0.018616	0.004425
14.689	0.076904	0.003967	0.007629	-0.03006	0.031738	0.10727	-0.011292	-0.022736	0.013733	-0.048065	-0.063019	0.028381	-0.016632	-0.010834	-0.056458	-0.002441	0.003052	-0.000763	0.11826	0.021057	0.009003	-0.000305	0.007935	-0.17899	0.004272	0.001373	0.002289	-0.023346	0.009003	-0.032501	-0.025177	0
14.69	0.071869	0.003052	-0.093689	-0.011749	0.022125	0.12009	-0.011902	-0.090485	0.01709	-0.047455	-0.014496	0.028992	-0.055389	-0.003662	0.023804	-0.077972	0.003967	-0.00946	0.10513	0.018921	0.005646	0.001678	-0.001068	-0.22125	0.001678	0	0.004272	-0.017395	-0.009003	-0.02655	-0.014191	0.001373
14.691	0.070343	0.003662	-0.14664	-0.001068	0.030518	0.090332	-0.00412	-0.11322	0.020905	-0.041809	0.10605	0.001984	-0.031281	0.013123	0.020294	-0.007629	0.003967	-0.00885	0.10544	0.090332	0.081329	-0.006866	0.004883	-0.26199	0.006409	-0.004425	0.005646	-0.003357	-0.041962	-0.016174	-0.032959	-0.002899
14.692	0.064392	0.004272	-0.18753	-0.003052	0.023956	0.06424	-0.01236	-0.12054	0.025635	-0.032043	0.047607	0.000305	-0.014191	0.039978	-0.003357	0.007324	0.009155	-0.003204	0.077972	-0.071106	0.17624	-0.001373	0.001373	-0.32425	0.005188	0.000153	0.006714	0.000458	-0.040131	-0.018616	-0.021973	0.001526
14.693	0.054016	-0.000305	-0.168	0.005341	0.019836	0.13687	-0.020905	-0.09491	0.036163	-0.031586	-0.013885	-0.020905	0.009155	0.032043	-0.007019	-0.017242	0.008698	-0.007782	0.05661	0.027924	0.20325	0.001373	0.006714	-0.30868	0.00824	-0.006714	0.006104	0.009918	-0.015106	-0.001526	0.017548	-0.006714
14.694	0.058136	0.010376	-0.12314	-0.001373	0.022736	0.1593	-0.025177	-0.036469	0.046082	-0.022125	-0.01358	-0.002289	0.028381	0.024719	-0.091858	-0.070496	0.006256	-0.006409	0.014191	-0.047455	0.15137	-0.002594	0.002594	-0.1857	0.003357	-0.013885	-0.000305	0.027161	0.015564	0.019989	0.044098	-0.007172
14.695	0.049744	0.009766	-0.060272	0.011902	0.030518	0.11871	-0.014801	0.03418	0.034485	-0.02182	0.075226	0.027008	0.016174	0.032806	-0.13763	-0.1413	0.006409	-0.000153	0.064087	-0.074005	0.099182	-0.006409	0.005798	0.021973	0.006104	-0.001678	-0.007172	0.024109	0.065613	0.050812	0.022125	-0.004883
14.696	0.050354	0.00885	-0.039673	0.010071	0.020294	0.16068	-0.006256	-0.013733	0.02594	-0.014954	0.070953	0.019989	0.008392	0.005493	-0.062103	-0.031433	0.009918	-0.006866	0.027008	-0.09613	0.033569	-0.010071	-0.001373	0.16586	0.005035	-0.001068	-0.014191	-0.007477	0.02594	0.048676	0.01236	-0.001984
14.697	0.038757	0.011292	-0.032196	-0.002289	0.03006	0.20294	-0.001221	-0.12085	0.010529	-0.012207	0.029144	0.004425	0.013733	-0.078583	0.014801	-0.059814	0.003052	-0.002136	0.025177	0.026398	-0.042877	-0.010071	-0.007629	0.22018	-0.002594	0.000153	-0.018158	-0.028992	-0.00473	0.018158	0.008087	-0.001068
14.698	0.024414	-0.001221	-0.15991	-0.014191	0.024414	0.21149	0.003357	-0.29022	0.009308	0.004272	-0.073853	0.025635	0.016327	-0.041199	0.06958	-0.06958	0.000763	-0.002899	0.091858	-0.0914	-0.10971	-0.009308	-0.018005	0.1503	0.001526	0.002289	-0.005188	-0.058136	-0.001526	-0.012817	-0.005798	-0.003815
14.699	-0.011444	0.008698	-0.22873	-0.019836	0.014343	0.023651	0.010223	-0.41428	0.011597	0.006104	-0.32455	0.023041	0.010529	0.007629	0.069885	0.063324	0	-0.004425	0.010986	-0.066223	-0.13977	-0.006409	-0.020142	0.11444	-0.005341	-0.00061	0.01358	-0.055847	0.023499	-0.014648	-0.019836	-0.00351
14.7	-0.010529	-0.001373	-0.083771	-0.021667	-0.001984	-0.22049	0.00473	-0.47226	0.016327	-0.000916	-0.16876	0.042725	0.00061	0.005646	0.10101	-0.080414	-0.004578	-0.007782	-0.023956	-0.14221	-0.13062	-0.010681	-0.012817	0.12466	-0.002747	0.006866	0.021057	-0.02594	0.020447	-0.026398	-0.015869	-0.007172
14.701	-0.010071	0.000763	0.016022	-0.005493	0.001221	-0.18845	0.007172	-0.4126	0.010529	0.00885	-0.020905	0.031433	0.000763	-0.026855	0.021973	0.001526	-0.005493	0	-0.05722	-0.056458	-0.14465	-0.007477	-0.010681	0.13504	-0.009918	0.000153	0.009766	-0.019073	0.004578	-0.025482	-0.024109	-0.000153
14.702	-0.014038	-0.00412	0.019836	-0.001068	0.003662	-0.091248	0.004272	-0.26962	0.005798	0.021515	0.28183	0.008087	0.007935	-0.034943	0.0177	0.11764	-0.004425	-0.005035	-0.0737	-0.12283	-0.13596	-0.003967	-0.01236	0.09903	0.003815	-0.001526	0.001678	-0.006866	-0.014343	-0.014191	-0.039978	-0.001373
14.703	-0.023041	-0.01236	0.088043	0.00473	0.003204	-0.23727	0.005035	-0.099792	0.008392	0.019379	0.10849	-0.032043	0.002441	-0.02243	0.10117	0.047607	-0.004272	-0.001678	-0.048218	0.017548	-0.11764	-0.010681	-0.014038	0.089569	-0.000153	-0.005341	-0.004272	0.009766	-0.020752	-0.009918	-0.0383	-0.009766
14.704	-0.050964	-0.008545	0.18204	-0.007935	0.007782	-0.36957	0.000153	0.24857	0.006866	0.015106	-0.010223	-0.090027	-0.006409	-0.014801	0.13016	-0.052185	-0.001678	-0.008392	-0.049896	0.000458	-0.095673	-0.008545	-0.014496	0.032349	0.006866	-0.001984	-0.019379	0.022736	-0.039063	-0.014038	-0.019836	-0.005188
14.705	-0.094299	-0.009766	0.19928	-0.002441	0.007019	-0.18906	-0.00351	0.42465	0.002899	0.010071	-0.15274	-0.063934	0.002136	-0.019379	0.092316	-0.049591	-0.006866	0.001221	-0.007935	0.050812	-0.071411	-0.006561	-0.010223	-0.037079	0	-0.008087	-0.030975	0.010986	-0.015106	-0.008545	-0.003967	-0.010071
14.706	-0.081329	-0.012665	0.177	0.011597	0.001526	-0.15884	-0.007324	0.37537	0.001526	0.004425	-0.069885	-0.040436	0.013885	-0.014648	0.077667	0.024261	-0.001068	-0.001221	-0.006104	0.041809	-0.060425	-0.000305	-0.007782	-0.066376	0.003204	-0.006104	-0.016174	-0.001984	0.006256	0.015259	-0.022736	-0.005188
14.707	-0.15595	-0.01236	0.091553	0.009918	0.007782	-0.08606	-0.005188	0.26154	0.00473	0.002136	0.035706	-0.010223	0.007782	-0.008392	-0.020599	0.004578	-0.006561	-0.003357	0.028229	0.011597	-0.071716	-0.002594	-0.005188	-0.10452	0.003052	-0.011444	-0.007019	0.002441	-0.005035	0.038452	-0.008698	-0.007019
14.708	-0.087585	-0.028992	0.051575	0.023041	0.014801	-0.019073	0.006256	0.24689	0.006409	-0.009613	0.019073	0.00473	0.003662	-0.002441	-0.036011	0.059662	-0.004272	-0.002747	0.069122	-0.058746	-0.05249	-0.000305	-0.00061	-0.19104	0.001678	0.002747	-0.006409	0.003204	-0.011292	0.039978	0.020294	-0.005493
14.709	-0.045624	-0.014648	0.048828	-0.002899	0.016022	0.018311	0.011902	0.19257	0.007477	-0.010071	0.012665	0.004883	0.000153	0.007782	-0.00351	0.1329	-0.002136	0.001984	0.066986	0.0737	-0.047302	-0.001526	-0.001831	-0.20493	0.006104	-0.010986	-0.005798	0.015717	-0.035706	0.03418	0.034485	-0.007477
14.71	-0.033112	-0.015411	0.05127	-0.00061	0.013885	-0.04837	0.019989	0.078735	0.007477	-0.011444	0.004578	0.011292	-0.007172	0.018158	-0.026093	-0.014038	0.00061	0.000305	0.028076	-0.02243	-0.031128	-0.000763	0.001678	-0.15228	0.007935	-0.002441	-0.003052	-0.009918	-0.040436	0.020905	0.022583	-0.002136
14.711	-0.054016	-0.013428	0.000458	0.03418	0.006561	-0.056	0.017395	0.002594	0.003815	0.000305	0.010223	-0.000458	-0.007477	0.01236	-0.026093	0.16861	-0.005341	-0.00412	0.02243	0.099487	-0.013733	0.00061	-0.00061	-0.051575	0.011597	0.001526	0.006256	-0.017853	-0.043488	0.003204	0.016479	-0.006714
14.712	-0.017395	-0.00824	0.069122	0.009918	0.00824	0.003815	0.024719	0.027924	0.006104	0.010681	0.008545	0.001068	-0.000763	0.020447	0.01297	-0.15518	0.000153	-0.002441	-0.019226	0.056458	-0.006866	-0.005493	0.000763	0.10925	0.006714	-0.001831	0.000153	-0.020447	-0.052643	-0.012207	-0.00351	-0.00351
14.713	0.018921	-0.010529	0.13611	0.01358	0.00412	-0.000153	0.034943	0.072327	-0.00061	-0.002289	0.023956	0.005798	0.003967	0.015564	-0.006714	0.033417	0	-0.002136	0.000458	-0.009155	0.026093	-0.004578	-0.011292	0.17777	0.009918	-0.014954	-0.000305	-0.017395	-0.046844	-0.067749	-0.034485	-0.007629
14.714	0.030212	-0.005035	0.11932	0.001678	0.008698	0.080566	0.03067	0.034332	0.006409	-0.018005	0.032654	0.011292	-0.001221	0.018921	-0.005951	-0.020905	0.001221	-0.007172	0.037537	0.033264	0.011902	-0.002594	0.000916	0.15961	0.006714	-0.005951	0.003357	-0.015869	-0.028992	-0.066528	-0.046234	-0.005493
14.715	0.036774	0.001068	0.035095	0.085144	0.002747	0.10574	0.011292	0.016022	0.008392	-0.02243	0.000305	-0.000305	0.010986	-0.001678	0.012512	-0.11566	-0.00061	-0.004883	0.046692	-0.11337	0.025635	-0.000763	-0.002747	0.094757	0.017548	-0.012207	0.002899	-0.010376	-0.020752	-0.028687	-0.028992	-0.014191
14.716	0.03418	0.005646	-0.037842	0.01236	-0.003967	-0.002747	0.009003	-0.087433	0.004272	-0.027924	-0.015564	0.002747	0.008545	-0.007935	0.034485	0.063782	0.002136	-0.002747	0.096893	0.10834	0.024719	-0.00946	0.002289	0.071106	0.009308	-0.012207	0.011749	-0.001678	-0.019531	-0.011597	-0.01709	-0.012512
14.717	0.048828	0.015259	-0.13046	0.037994	0.004272	-0.081329	0.010986	-0.19836	0.003357	-0.016022	0.017853	0.003967	0.005188	0.010529	-0.016174	-0.028381	0.000305	-0.003967	0.11215	-0.081482	0.016174	-0.00946	0.007477	0.076447	0.010834	-0.014191	-0.007477	-0.007629	-0.007019	-0.019836	-0.010529	0
14.718	0.038147	0.036011	-0.19302	0.009003	-0.002441	-0.038147	0.021667	-0.16312	-0.006714	-0.007019	0.028992	0.005798	-0.00061	0.013733	-0.063477	-0.035553	0.000763	-0.01236	0.040894	0.062714	0.021667	-0.005341	0.013428	0.025482	0.006866	0.000305	-0.00885	-0.002594	-0.019073	-0.013428	0.00061	-0.005341
